<svg version="1.2" xmlns="http://www.w3.org/2000/svg" viewBox="0 0 960 896" width="960" height="896">
	<title>Inteligentne obiekty wektorowe-ai</title>
	<style>
		.s0 { fill: none;stroke: #201d1e;stroke-linejoin: round;stroke-width: 32 } 
	</style>
	<g id="Free icons">
		<g id="&lt;Group&gt;">
			<path id="&lt;Path&gt;" class="s0" d="m944 394.6c0 209-207.7 378.5-464 378.5-57.2 0-112-8.4-162.6-23.8l-269.4 130.7 107.2-215.1c-85.9-68.7-139.2-164.4-139.2-270.3 0-209.1 207.7-378.6 464-378.6 256.3 0 464 169.5 464 378.6z"/>
			<path id="&lt;Path&gt;" class="s0" d="m278.3 340.3c0-138 181.5-181.6 221.9-13.8 40.3-167.8 221.9-124.2 221.9 13.8 0 119.5-221.9 280.9-221.9 280.9 0 0-221.9-161.4-221.9-280.9z"/>
		</g>
	</g>
</svg>